<?xml version="1.0" encoding="utf-8"?>
<!-- Generator: Adobe Illustrator 16.0.0, SVG Export Plug-In . SVG Version: 6.00 Build 0)  -->
<!DOCTYPE svg PUBLIC "-//W3C//DTD SVG 1.1//EN" "http://www.w3.org/Graphics/SVG/1.1/DTD/svg11.dtd">
<svg version="1.1" id="Layer_1" xmlns="http://www.w3.org/2000/svg" xmlns:xlink="http://www.w3.org/1999/xlink" x="0px" y="0px"
	 width="120.371px" height="110.188px" viewBox="0 0 120.371 110.188" enable-background="new 0 0 120.371 110.188"
	 xml:space="preserve">
<g>
	<g>
		<path fill="#258E3E" d="M100.256,22.111v-0.033H67.844c-0.588-3.703-3.793-6.547-7.658-6.547c-3.866,0-7.072,2.844-7.659,6.547
			H20.114v0.033L0,53.777h0.009c0,11.104,9.002,20.104,20.105,20.104c11.103,0,20.104-9,20.104-20.104h0.011L21.639,24.512h30.888
			c0.587,3.703,3.793,6.547,7.659,6.547c3.865,0,7.07-2.844,7.658-6.547h30.888L80.143,53.777h0.01
			c0,11.104,9.001,20.104,20.104,20.104s20.105-9,20.105-20.104h0.01L100.256,22.111z M36.229,51.475H4l16.114-25.369L36.229,51.475
			z M60.186,28.973c-3.13,0-5.678-2.547-5.678-5.678s2.548-5.678,5.678-5.678c3.131,0,5.678,2.547,5.678,5.678
			S63.316,28.973,60.186,28.973z M84.142,51.475l16.114-25.369l16.115,25.369H84.142z"/>
		<g>
			<polygon fill="#258E3E" points="64.499,98.983 55.873,98.983 55.873,29.118 60.186,30.509 64.499,29.118 			"/>
			<polygon fill="#258E3E" points="71.83,105.936 48.54,105.936 52.017,98.299 68.354,98.299 			"/>
			<rect x="44.89" y="107.246" fill="#258E3E" width="30.591" height="2.941"/>
		</g>
	</g>
	<g>
		<path fill="#258E3E" d="M59.76,17.641v-2.054c-1.449-0.064-2.854-0.454-3.675-0.931l0.649-2.528
			c0.908,0.497,2.182,0.951,3.589,0.951c1.232,0,2.077-0.476,2.077-1.341c0-0.82-0.692-1.34-2.295-1.881
			c-2.312-0.778-3.892-1.858-3.892-3.957c0-1.9,1.343-3.393,3.655-3.848V0h2.117v1.901c1.449,0.065,2.423,0.368,3.136,0.714
			l-0.628,2.443c-0.561-0.238-1.555-0.735-3.113-0.735c-1.404,0-1.859,0.604-1.859,1.21c0,0.715,0.757,1.169,2.596,1.859
			c2.572,0.909,3.61,2.098,3.61,4.043c0,1.926-1.362,3.567-3.849,4v2.205H59.76z"/>
	</g>
</g>
</svg>
