<?xml version="1.0" encoding="utf-8"?>
<!-- Generator: Adobe Illustrator 16.0.0, SVG Export Plug-In . SVG Version: 6.00 Build 0)  -->
<!DOCTYPE svg PUBLIC "-//W3C//DTD SVG 1.1//EN" "http://www.w3.org/Graphics/SVG/1.1/DTD/svg11.dtd">
<svg version="1.1" id="Layer_1" xmlns="http://www.w3.org/2000/svg" xmlns:xlink="http://www.w3.org/1999/xlink" x="0px" y="0px"
	 width="120.371px" height="110.188px" viewBox="0 0 120.371 110.188" enable-background="new 0 0 120.371 110.188"
	 xml:space="preserve">
<g>
	<path fill="#258E3E" d="M87.908,77.475c-6.401,0-11.606-5.205-11.606-11.605s5.205-11.606,11.606-11.606h15.459v-8.855
		c0-4.829-3.916-8.741-8.744-8.741h-1.179H27.742c-2.526,0-4.574-1.894-4.574-4.229v-0.443c0-2.335,2.048-4.228,4.574-4.228h68.396
		c0.635-3.268,0.607-6.187-1.516-6.187H25.699c-4.828,0-8.743,3.913-8.743,8.741v15.087v25.395v15.086
		c0,4.829,3.915,8.742,8.743,8.742h68.924c4.828,0,8.744-3.913,8.744-8.742v-8.413H87.908z"/>
	<path fill="#258E3E" d="M96.869,32.437c0,0.513-0.397,0.93-0.885,0.93H29.848c-0.488,0-0.886-0.417-0.886-0.93l0,0
		c0-0.514,0.397-0.931,0.886-0.931h66.137C96.472,31.506,96.869,31.923,96.869,32.437L96.869,32.437z"/>
	<path fill="#258E3E" d="M87.908,58.115c-4.349,0-7.886,3.538-7.886,7.885c0,4.349,3.537,7.885,7.886,7.885h19.507v-15.77H87.908z
		 M88.29,68.274c-1.256,0-2.273-1.018-2.273-2.272c0-1.257,1.018-2.274,2.273-2.274c1.257,0,2.274,1.018,2.274,2.274
		C90.564,67.257,89.547,68.274,88.29,68.274z"/>
</g>
</svg>
