<?xml version="1.0" encoding="utf-8"?>
<!-- Generator: Adobe Illustrator 16.0.0, SVG Export Plug-In . SVG Version: 6.00 Build 0)  -->
<!DOCTYPE svg PUBLIC "-//W3C//DTD SVG 1.1//EN" "http://www.w3.org/Graphics/SVG/1.1/DTD/svg11.dtd">
<svg version="1.1" id="Layer_1" xmlns="http://www.w3.org/2000/svg" xmlns:xlink="http://www.w3.org/1999/xlink" x="0px" y="0px"
	 width="120.371px" height="110.188px" viewBox="0 0 120.371 110.188" enable-background="new 0 0 120.371 110.188"
	 xml:space="preserve">
<g>
	<g>
		<path fill="#258E3E" d="M111.462,48.062c2.193-0.934,0.316-2.85-2.37-1.758c-4.006,1.629-5.437,2.488-6.802,4.865
			c-2.303-0.172-4.702,0.029-6.799,0.512c-7.706-10.173-21.434-16.949-37.094-16.949c-5.598,0-10.947,0.87-15.865,2.447
			l-12.446-6.672c0,0-1.24,3.32-0.324,7.231c0.604,2.577,1.271,3.899,1.78,4.581c-7.485,4.803-13.017,11.566-15.445,19.352
			c-0.344-0.074-0.699-0.115-1.065-0.115c-2.835,0-5.134,2.299-5.134,5.135v7.904c0,2.836,2.299,5.135,5.134,5.135
			c0.375,0,0.739-0.047,1.091-0.123c1.512,4.791,4.199,9.191,7.79,12.986l-2.971,6.578l17.749,8.016l1.756-3.887
			c5.478,2.031,11.551,3.172,17.951,3.172c6.401,0,12.474-1.141,17.951-3.172l1.756,3.887l17.749-8.016l-2.971-6.578
			c5.748-6.074,9.181-13.701,9.181-21.99c0-5.838-1.709-11.346-4.721-16.217c1.291-0.203,2.673-0.295,4.017-0.246
			c-0.008,0.104-0.014,0.205-0.018,0.309c-0.094,2.396,1.838,6.604,4.965,7.482c1.001,0.281,1.863,0.369,2.598,0.262
			c0.572-0.084,1.068-0.285,1.494-0.607c0.894-0.672,1.351-1.783,1.358-3.301c0.01-2.055-0.93-3.801-2.716-5.049
			c-0.963-0.674-2.132-1.172-3.415-1.518C106.799,50.404,108.773,49.207,111.462,48.062z M33.147,59.307
			c-2.071,0-3.75-1.678-3.75-3.75c0-2.07,1.679-3.75,3.75-3.75s3.75,1.68,3.75,3.75C36.897,57.629,35.219,59.307,33.147,59.307z
			 M67.964,43.006c-2.096-0.922-4.4-1.221-6.663-1.197c-4.247,0.047-8.343,1.232-10.608,1.584c-1.484,0.23-2.146-1.031-1.607-1.352
			c-0.225-0.322,5.159-2.209,5.159-2.209c2.299-0.654,4.784-0.975,7.372-0.889c2.728,0.09,5.313,0.619,7.66,1.503
			C71.77,41.385,69.508,43.686,67.964,43.006z M107.321,55.695c0.984,0.688,1.44,1.506,1.435,2.576
			c-0.003,0.727-0.162,0.92-0.162,0.92c-0.002,0.002-0.332,0.174-1.476-0.148c-1.507-0.424-2.833-3.102-2.779-4.477
			c0.001-0.023,0.003-0.045,0.004-0.066C105.509,54.756,106.542,55.15,107.321,55.695z"/>
	</g>
	<path fill="#258E3E" d="M62.637,2.161c-6.152,0-11.141,4.987-11.141,11.141s4.988,11.141,11.141,11.141s11.141-4.987,11.141-11.141
		S68.789,2.161,62.637,2.161z M63.493,19.129v1.941h-1.866v-1.809c-1.276-0.057-2.514-0.4-3.237-0.819l0.572-2.228
		c0.8,0.438,1.922,0.838,3.161,0.838c1.085,0,1.828-0.418,1.828-1.181c0-0.724-0.609-1.18-2.02-1.657
		c-2.037-0.685-3.428-1.637-3.428-3.484c0-1.674,1.182-2.988,3.219-3.389V5.533h1.865v1.676c1.276,0.057,2.133,0.324,2.761,0.629
		l-0.552,2.151c-0.494-0.21-1.37-0.647-2.742-0.647c-1.237,0-1.638,0.533-1.638,1.066c0,0.629,0.667,1.027,2.286,1.637
		c2.265,0.801,3.18,1.848,3.18,3.561C66.883,17.301,65.683,18.747,63.493,19.129z"/>
</g>
</svg>
